<?xml version="1.0" encoding="UTF-8"?>
<svg xmlns="http://www.w3.org/2000/svg" xmlns:xlink="http://www.w3.org/1999/xlink" width="32px" height="32px" viewBox="0 0 32 32" version="1.1">
<g id="surface1">
<path style=" stroke:none;fill-rule:evenodd;fill:rgb(100%,100%,100%);fill-opacity:1;" d="M 15.953125 0 C 7.132812 0 0 7.332031 0 16.40625 C 0 23.65625 4.570312 29.796875 10.90625 31.96875 C 11.699219 32.132812 11.992188 31.617188 11.992188 31.183594 C 11.992188 30.800781 11.964844 29.496094 11.964844 28.140625 C 7.527344 29.117188 6.601562 26.183594 6.601562 26.183594 C 5.890625 24.28125 4.832031 23.792969 4.832031 23.792969 C 3.378906 22.789062 4.9375 22.789062 4.9375 22.789062 C 6.550781 22.898438 7.394531 24.472656 7.394531 24.472656 C 8.820312 26.972656 11.117188 26.265625 12.042969 25.832031 C 12.175781 24.769531 12.597656 24.039062 13.046875 23.628906 C 9.507812 23.25 5.785156 21.839844 5.785156 15.535156 C 5.785156 13.742188 6.417969 12.277344 7.421875 11.136719 C 7.261719 10.730469 6.707031 9.042969 7.582031 6.789062 C 7.582031 6.789062 8.925781 6.355469 11.964844 8.472656 C 13.265625 8.113281 14.605469 7.933594 15.953125 7.929688 C 17.300781 7.929688 18.671875 8.121094 19.941406 8.472656 C 22.976562 6.355469 24.324219 6.789062 24.324219 6.789062 C 25.195312 9.042969 24.640625 10.730469 24.484375 11.136719 C 25.511719 12.277344 26.121094 13.742188 26.121094 15.535156 C 26.121094 21.839844 22.398438 23.222656 18.832031 23.628906 C 19.414062 24.148438 19.914062 25.125 19.914062 26.671875 C 19.914062 28.871094 19.886719 30.636719 19.886719 31.179688 C 19.886719 31.617188 20.179688 32.132812 20.96875 31.96875 C 27.308594 29.796875 31.878906 23.65625 31.878906 16.40625 C 31.90625 7.332031 24.746094 0 15.953125 0 Z M 15.953125 0 "/>
</g>
</svg>
